# xmcd
#
# Track frame offsets: 
#        150
#        20803
#        44198
#        66575
#        82938
#        104654
#        120854
#        140833
#        156984
#        176963
#        192062
#        207807
#
# Disc length: 2969 seconds
#
# Revision: 0
# Processed by: cddbd v1.5.2PL0 Copyright (c) Steve Scherf et al.
# Submitted via: ExactAudioCopyFreeDBPlugin 1.0
#
DISCID=b60b970c
DTITLE=Jason Mason - Hmm... Naked Under All These Clothes
DYEAR=2010
DGENRE=
TTITLE0=Ryan's Song
TTITLE1=UW Zero Blues
TTITLE2=Me and Janis
TTITLE3=My Black Porch
TTITLE4=You Can Fly If You Want To
TTITLE5=TV Song
TTITLE6=Mrs. May
TTITLE7=American Dream
TTITLE8=If I Thought You'd Go
TTITLE9=Lame
TTITLE10=I Wouldn't Mind Dying Now
TTITLE11=If I Could run Away
EXTD=
EXTT0=
EXTT1=
EXTT2=
EXTT3=
EXTT4=
EXTT5=
EXTT6=
EXTT7=
EXTT8=
EXTT9=
EXTT10=
EXTT11=
PLAYORDER=
